# AST/ASF file generated using VICON BodyLanguage
# -----------------------------------------------
:version 1.10
:name VICON
:units
  mass 1.0
  length 0.45
  angle deg
:documentation
   .ast/.asf automatically generated from VICON data using
   VICON BodyBuilder and BodyLanguage model FoxedUp or BRILLIANT.MOD
:root
   order TX TY TZ RX RY RZ
   axis XYZ
   position 0 0 0  
   orientation 0 0 0 
:bonedata
  begin
     id 1 
     name lhipjoint
     direction 0.612567 -0.751349 0.245431 
     length 2.42285 
     axis 0 0 0  XYZ
  end
  begin
     id 2 
     name lfemur
     direction 0.34202 -0.939693 0  
     length 7.11304  
     axis 0 0 20  XYZ
    dof rx ry rz
    limits (-160.0 20.0)
           (-70.0 70.0)
           (-60.0 70.0)
  end
  begin
     id 3 
     name ltibia
     direction 0.34202 -0.939693 0   
     length 7.84529   
     axis 0 0 20   XYZ
    dof rx
    limits (-10.0 170.0)
  end
  begin
     id 4 
     name lfoot
     direction 0.0779239 -0.214094 0.9737   
     length 1.97176   
     axis -90 7.62852e-016 20   XYZ
    dof rx rz
    limits (-45.0 90.0)
           (-70.0 20.0)
  end
  begin
     id 5 
     name ltoes
     direction 1.53565e-011 -4.21709e-011 1   
     length 0.993197   
     axis -90 7.62852e-016 20   XYZ
    dof rx
    limits (-90.0 20.0)
  end
  begin
     id 6 
     name rhipjoint
     direction -0.665722 -0.709315 0.231701   
     length 2.56642  
     axis 0 0 0  XYZ 
  end
  begin
     id 7 
     name rfemur
     direction -0.34202 -0.939693 0   
     length 7.32108   
     axis 0 0 -20   XYZ
    dof rx ry rz
    limits (-160.0 20.0)
           (-70.0 70.0)
           (-70.0 60.0)
  end
  begin
     id 8 
     name rtibia
     direction -0.34202 -0.939693 0   
     length 7.81254   
     axis 0 0 -20   XYZ
    dof rx
    limits (-10.0 170.0)
 end
 begin
     id 9 
     name rfoot
     direction -0.0832806 -0.228812 0.969902   
     length 2.08278  
     axis -90 -7.62852e-016 -20   XYZ
    dof rx rz
    limits (-45.0 90.0)
           (-20.0 70.0)
  end
  begin
     id 10 
     name rtoes
     direction -1.53589e-011 -4.22086e-011 1   
     length 1.04609   
     axis -90 -7.62852e-016 -20   XYZ
    dof rx
    limits (-90.0 20.0)
  end
  begin
     id 11 
     name lowerback
     direction -0.00506013 0.988403 -0.151766   
     length 2.01978   
     axis 0 0 0   XYZ
    dof rx ry rz
    limits (-20.0 45.0)
           (-30.0 30.0)
           (-30.0 30.0)
  end
  begin
     id 12 
     name upperback
     direction -0.00836389 0.99968 0.0238859   
     length 2.01276   
     axis 0 0 0   XYZ
    dof rx ry rz
    limits (-20.0 45.0)
           (-30.0 30.0)
           (-30.0 30.0)
  end
  begin
     id 13 
     name thorax
     direction -0.00684136 0.995386 0.0957043   
     length 2.07303   
     axis 0 0 0   XYZ
    dof rx ry rz
    limits (-20.0 45.0)
           (-30.0 30.0)
           (-30.0 30.0)
  end
  begin
     id 14 
     name lowerneck
     direction -0.0161045 0.999661 0.0204485   
     length 1.91243   
     axis 0 0 0   XYZ
    dof rx ry rz
    limits (-20.0 45.0)
           (-30.0 30.0)
           (-30.0 30.0)
  end
  begin
     id 15 
     name upperneck
     direction 0.0553583 0.990946 -0.122319   
     length 1.91574   
     axis 0 0 0   XYZ
    dof rx ry rz
    limits (-20.0 45.0)
           (-30.0 30.0)
           (-30.0 30.0)
  end
  begin
     id 16
     name head
     direction 0.0180273 0.998839 -0.0446756  
     length 1.92693  
     axis 0 0 0   XYZ
    dof rx ry rz
    limits (-20.0 45.0)
           (-30.0 30.0)
           (-30.0 30.0)
  end
  begin
     id 17 
     name lclavicle
     direction 0.945646 0.319323 -0.0615358  
     length 4.0076  
     axis 0 0 0   XYZ
    dof ry rz
    limits (-20.0 10.0)
           (0.0 20.0)
  end
  begin
     id 18 
     name lhumerus
     direction 1 -4.48967e-011 -2.79996e-027   
     length 5.64147   
     axis 180 -30 -90   XYZ
    dof rx ry rz
    limits (-60.0 90.0)
           (-90.0 90.0)
           (-90.0 90.0)
  end
  begin
     id 19
     name lradius
     direction 1 -4.48976e-011 -9.5122e-027   
     length 2.86444   
     axis 180 -30 -90   XYZ
    dof rx
    limits (-10.0 170.0)
  end
  begin
     id 20
     name lwrist
     direction 1 -4.48983e-011 -1.24047e-026   
     length 1.43222   
     axis 9.05591e-015 90 90   XYZ
    dof ry
    limits (-180.0 0.0)
 end
  begin
     id 21 
     name lhand
     direction 1 -4.4892e-011 -2.48094e-026   
     length 0.722123   
     axis 1.58305e-014 90 90   XYZ
    dof rx rz
    limits (-90.0 90.0)
           (-45.0 45.0)
  end
  begin
     id 22 
     name lfingers
     direction 1 -4.48895e-011 -4.96187e-026   
     length 0.582194   
     axis 3.1661e-014 90 90   XYZ
    dof rx
    limits (0.0 90.0)
  end
  begin
     id 23
     name lthumb
     direction 0.707107 -6.34961e-011 0.707107   
     length 0.835918   
     axis -90 45 2.85299e-015   XYZ
    dof rx rz
    limits (-45.0 45.0)
           (-45.0 45.0)
  end
  begin
     id 24 
     name rclavicle
     direction -0.932635 0.324218 -0.15835   
     length 3.65819  
     axis 0 0 0   XYZ 
    dof ry rz
    limits (-10.0 20.0)
           (-20.0 0.0)
  end
  begin
     id 25 
     name rhumerus
     direction -1 -4.48965e-011 -4.02296e-027  
     length 5.44729   
     axis 180 30 90   XYZ
    dof rx ry rz
    limits (-90.0 60.0)
           (-90.0 90.0)
           (-90.0 90.0)
  end
  begin
     id 26 
     name rradius
     direction -1 -4.48957e-011 -8.81087e-027   
     length 3.08821   
     axis 180 30 90   XYZ
    dof rx
    limits (-10.0 170.0)
  end
  begin
     id 27 
     name rwrist
     direction -1 -4.49015e-011 -1.24047e-026   
     length 1.5441   
     axis 9.05591e-015 -90 -90   XYZ
    dof ry
    limits (-180.0 0.0)
  end
  begin
     id 28
     name rhand
     direction -1 -4.4891e-011 -2.48094e-026   
     length 0.821049   
     axis 1.58305e-014 -90 -90   XYZ
    dof rx rz
    limits (-90.0 90.0)
           (-45.0 45.0)
  end
  begin
     id 29
     name rfingers
     direction -1 -4.48985e-011 -4.96187e-026   
     length 0.661951   
     axis 3.1661e-014 -90 -90   XYZ
    dof rx
    limits (0.0 90.0)
  end
  begin
     id 30
     name rthumb
     direction -0.707107 -6.34906e-011 0.707107   
     length 0.950433   
     axis -90 -45 -2.85299e-015   XYZ
    dof rx rz
    limits (-45.0 45.0)
           (-45.0 45.0)
  end
:hierarchy
  begin
    root lhipjoint rhipjoint lowerback
    lhipjoint lfemur
    lfemur ltibia
    ltibia lfoot
    lfoot ltoes
    rhipjoint rfemur
    rfemur rtibia
    rtibia rfoot
    rfoot rtoes
    lowerback upperback
    upperback thorax
    thorax lowerneck lclavicle rclavicle
    lowerneck upperneck
    upperneck head
    lclavicle lhumerus
    lhumerus lradius
    lradius lwrist
    lwrist lhand lthumb
    lhand lfingers
    rclavicle rhumerus
    rhumerus rradius
    rradius rwrist
    rwrist rhand rthumb
    rhand rfingers
  end

#!OML:ASF F:\VICON\USERDATA\INSTALL\rory3\rory3.ASF
:FULLY-SPECIFIED
:DEGREES
2743
root 3.70169 17.5912 0.242637 340.492 92.9846 343.486
lowerback 1.17425 1.84776 2.02308
upperback -4.66052 2.49304 -3.96911
thorax -5.23354 1.10835 -5.42078
lowerneck -5.31283 5.64023 -3.04372
upperneck 3.99955 7.79976 -0.52301
head 2.0594 3.83229 0.604486
rclavicle -1.49089e-014 -7.15625e-015
rhumerus -5.92647 -21.5094 -41.8138
rradius 126.173
rwrist -10.8543
rhand -21.8888 3.18107
rfingers 7.12502
rthumb 4.51618 -26.7508
lclavicle -1.49089e-014 -7.15625e-015
lhumerus -1.3554 4.28459 51.2005
lradius 133.863
lwrist 26.0174
lhand -35.522 -14.6798
lfingers 7.12502
lthumb -8.64853 15.123
rfemur 4.04383 0.443228 18.3716
rtibia 17.3242
rfoot -22.4061 -8.10438
rtoes -8.27568
lfemur 3.44443 -0.209224 -16.8521
ltibia 11.3576
lfoot -11.3915 -3.6562
ltoes -2.02396
2744
root 3.69014 17.5857 0.246602 340.08 92.9193 343.157
lowerback 1.31581 1.86169 1.98485
upperback -4.55156 2.50613 -4.09647
thorax -5.19482 1.11586 -5.53679
lowerneck -5.41744 5.60497 -3.20098
upperneck 3.85273 7.76824 -0.588831
head 2.02705 3.8143 0.609062
rclavicle 2.0276e-014 -1.43125e-014
rhumerus -6.54495 -20.9788 -41.7444
rradius 125.372
rwrist -6.34112
rhand -22.1004 4.52905
rfingers 7.12502
rthumb 4.31181 -25.407
lclavicle 2.0276e-014 -1.43125e-014
lhumerus -1.35699 4.41049 51.3469
lradius 133.357
lwrist 22.7825
lhand -34.7979 -15.6006
lfingers 7.12502
lthumb -7.94967 14.2299
rfemur 4.04843 0.436094 18.3982
rtibia 17.4127
rfoot -22.4568 -8.11502
rtoes -7.91243
lfemur 3.44784 -0.249512 -16.8265
ltibia 11.4697
lfoot -11.4779 -3.65606
ltoes -1.81486
2745
root 3.68091 17.5816 0.24992 340.138 92.8107 343.34
lowerback 1.45548 1.86675 2.00381
upperback -4.42014 2.50961 -4.21659
thorax -5.13055 1.11704 -5.67629
lowerneck -5.41231 5.59815 -3.32741
upperneck 3.52861 7.7651 -0.682546
head 1.91884 3.81387 0.592125
rclavicle 8.94531e-015 9.54166e-015
rhumerus -6.97959 -20.608 -41.6973
rradius 124.781
rwrist -3.21613
rhand -21.944 5.25856
rfingers 7.12502
rthumb 4.46288 -24.6744
lclavicle 8.94531e-015 9.54166e-015
lhumerus -1.26557 4.79706 51.2821
lradius 133.111
lwrist 20.6826
lhand -34.4853 -14.7541
lfingers 7.12502
lthumb -7.64799 15.0876
rfemur 4.09884 0.440194 18.4518
rtibia 17.4829
rfoot -22.3805 -8.13865
rtoes -7.88661
lfemur 3.47603 -0.33617 -16.7818
ltibia 11.6517
lfoot -11.6232 -3.56245
ltoes -1.7572
2746
root 3.67345 17.5778 0.252481 340.87 92.694 344.177
lowerback 1.55877 1.87097 2.03969
upperback -4.27838 2.5138 -4.28768
thorax -5.03572 1.11956 -5.77131
lowerneck -5.5065 5.6065 -3.64955
upperneck 3.2641 7.79626 -0.65939
head 1.83547 3.83021 0.649472
rclavicle -1.25234e-014 1.11319e-014
rhumerus -7.16688 -20.3959 -41.473
rradius 124.492
rwrist -2.15818
rhand -21.5761 5.29838
rfingers 7.12502
rthumb 4.81807 -24.6268
lclavicle -1.25234e-014 1.11319e-014
lhumerus -1.0611 5.21082 51.1475
lradius 133.222
lwrist 20.4374
lhand -34.5813 -12.2341
lfingers 7.12502
lthumb -7.74063 17.6042
rfemur 4.16081 0.430727 18.5321
rtibia 17.4933
rfoot -22.3175 -8.12067
rtoes -8.04382
lfemur 3.42262 -0.274537 -16.6901
ltibia 11.9671
lfoot -11.7906 -3.60029
ltoes -1.85762
2747
root 3.66013 17.5756 0.25591 342.887 92.584 346.242
lowerback 1.72064 1.88807 2.12334
upperback -4.18366 2.53767 -4.34675
thorax -5.02038 1.12772 -5.88685
lowerneck -5.63066 5.57338 -3.92758
upperneck 3.09037 7.77364 -0.64572
head 1.79026 3.81879 0.698692
rclavicle 5.56597e-015 1.11319e-014
rhumerus -7.28366 -20.3597 -41.0588
rradius 124.547
rwrist -3.38201
rhand -20.8145 4.77001
rfingers 7.12502
rthumb 5.55347 -25.1372
lclavicle 5.56597e-015 1.11319e-014
lhumerus -0.659043 5.63119 50.9058
lradius 133.673
lwrist 22.5925
lhand -34.6976 -8.91189
lfingers 7.12502
lthumb -7.85288 20.9223
rfemur 4.15431 0.44397 18.6848
rtibia 17.4681
rfoot -22.2005 -8.19399
rtoes -8.35656
lfemur 3.23334 -0.180368 -16.5276
ltibia 12.3397
lfoot -11.8878 -3.69307
ltoes -1.96056
2748
root 3.64336 17.5757 0.261925 348.929 92.398 352.259
lowerback 1.90501 1.90256 2.33463
upperback -4.14496 2.56463 -4.34379
thorax -5.07406 1.13035 -6.0132
lowerneck -5.62281 5.5564 -4.15114
upperneck 2.77929 7.75974 -0.645857
head 1.67961 3.81567 0.72633
rclavicle 4.1546e-014 -3.49861e-014
rhumerus -7.26833 -20.4284 -40.5348
rradius 124.831
rwrist -6.78208
rhand -19.6964 3.65721
rfingers 7.12502
rthumb 6.63288 -26.2189
lclavicle 4.1546e-014 -3.49861e-014
lhumerus -0.129321 6.19319 50.5473
lradius 134.476
lwrist 27.1682
lhand -34.7928 -5.34459
lfingers 7.12502
lthumb -7.94483 24.4861
rfemur 4.04118 0.603294 19.0651
rtibia 17.4375
rfoot -22.1167 -8.32572
rtoes -8.37565
lfemur 2.97329 -0.148433 -16.1706
ltibia 12.678
lfoot -11.9671 -3.68001
ltoes -2.12242
2749
root 3.63156 17.575 0.266928 353.687 92.2571 357.004
lowerback 2.0563 1.90113 2.47277
upperback -4.10012 2.56717 -4.39294
thorax -5.106 1.12416 -6.15029
lowerneck -5.65451 5.57264 -4.34547
upperneck 2.49033 7.78618 -0.565334
head 1.58069 3.83434 0.77718
rclavicle 4.90998e-014 -1.90833e-014
rhumerus -7.14126 -20.6756 -40.0679
rradius 125.279
rwrist -12.0067
rhand -18.3084 2.1468
rfingers 7.12502
rthumb 7.97265 -27.6828
lclavicle 4.90998e-014 -1.90833e-014
lhumerus 0.579549 7.20242 50.0624
lradius 135.581
lwrist 34.1406
lhand -35.001 -2.16106
lfingers 7.12502
lthumb -8.14571 27.6619
rfemur 3.96834 0.735437 19.3346
rtibia 17.4202
rfoot -22.0949 -8.32815
rtoes -7.9418
lfemur 2.79786 -0.0733735 -15.9065
ltibia 12.924
lfoot -12.0266 -3.70639
ltoes -2.02648
2750
root 3.62419 17.5753 0.269306 353.588 92.1294 356.905
lowerback 2.20773 1.91254 2.47798
upperback -4.09892 2.58077 -4.51777
thorax -5.18481 1.12678 -6.29497
lowerneck -5.56179 5.60331 -4.52174
upperneck 2.21331 7.82575 -0.50288
head 1.46522 3.85998 0.815133
rclavicle -3.29983e-014 -6.36111e-015
rhumerus -7.04988 -21.1171 -39.4595
rradius 125.881
rwrist -18.4236
rhand -16.6188 0.336534
rfingers 7.12502
rthumb 9.60316 -29.4246
lclavicle -3.29983e-014 -6.36111e-015
lhumerus 1.36701 8.74691 49.5326
lradius 136.756
lwrist 42.7772
lhand -35.415 0.331629
lfingers 7.12502
lthumb -8.54529 30.1387
rfemur 3.91105 0.874446 19.3638
rtibia 17.4435
rfoot -22.1316 -8.31639
rtoes -7.67042
lfemur 2.74135 -0.00776837 -15.8901
ltibia 13.0257
lfoot -12.1014 -3.64536
ltoes -2.37244
2751
root 3.61874 17.5784 0.270981 352.341 92.0025 355.619
lowerback 2.32711 1.91458 2.43853
upperback -4.1334 2.58 -4.6337
thorax -5.28685 1.12333 -6.40411
lowerneck -5.45925 5.66634 -4.68392
upperneck 2.01967 7.90953 -0.458878
head 1.37546 3.90598 0.84768
rclavicle -2.88238e-014 1.59028e-015
rhumerus -6.88316 -21.6986 -38.6551
rradius 126.437
rwrist -25.395
rhand -15.0963 -1.53668
rfingers 7.12502
rthumb 11.0718 -31.2246
lclavicle -2.88238e-014 1.59028e-015
lhumerus 2.23378 10.787 49.1468
lradius 137.886
lwrist 52.1019
lhand -36.2343 2.52414
lfingers 7.12502
lthumb -9.33586 32.2974
rfemur 3.79754 1.03352 19.3411
rtibia 17.5077
rfoot -22.1591 -8.27953
rtoes -7.17972
lfemur 2.72793 0.0304052 -15.9307
ltibia 12.9709
lfoot -12.0596 -3.5326
ltoes -2.17642
2752
root 3.61533 17.5815 0.271448 349.689 91.9158 352.916
lowerback 2.39865 1.90896 2.33463
upperback -4.15068 2.56586 -4.74814
thorax -5.34756 1.1176 -6.4709
lowerneck -5.47475 5.74102 -4.82366
upperneck 1.96267 8.01614 -0.404488
head 1.34999 3.96043 0.888455
rclavicle 2.8625e-014 -1.11319e-014
rhumerus -6.69034 -22.4011 -37.7597
rradius 126.743
rwrist -32.018
rhand -13.9489 -3.01685
rfingers 7.12502
rthumb 12.1784 -32.6423
lclavicle 2.8625e-014 -1.11319e-014
lhumerus 3.21021 13.2874 48.8894
lradius 138.754
lwrist 61.3048
lhand -37.2057 3.74907
lfingers 7.12502
lthumb -10.273 33.4782
rfemur 3.6772 1.12208 19.2632
rtibia 17.6012
rfoot -22.1794 -8.3762
rtoes -7.67417
lfemur 2.77366 0.0781255 -16.0288
ltibia 12.799
lfoot -11.9469 -3.44511
ltoes -2.15028
2753
root 3.61223 17.5845 0.272462 347.082 91.8564 350.225
lowerback 2.4302 1.88797 2.17292
upperback -4.20438 2.52869 -4.84043
thorax -5.42982 1.10245 -6.47921
lowerneck -5.41708 5.8266 -4.83782
upperneck 1.89091 8.12874 -0.465074
head 1.31618 4.0172 0.869946
rclavicle -3.97569e-015 3.97569e-014
rhumerus -6.3889 -23.0827 -37.1005
rradius 126.804
rwrist -37.1426
rhand -13.4244 -3.94705
rfingers 7.12502
rthumb 12.6841 -33.5419
lclavicle -3.97569e-015 3.97569e-014
lhumerus 4.07448 15.8223 48.5567
lradius 139.192
lwrist 68.8724
lhand -37.8483 3.9077
lfingers 7.12502
lthumb -10.893 33.6052
rfemur 3.52246 1.22764 19.2
rtibia 17.6923
rfoot -22.2417 -8.45428
rtoes -7.71753
lfemur 2.80037 0.0866864 -16.1191
ltibia 12.5785
lfoot -11.8598 -3.31974
ltoes -2.1326
2754
root 3.61011 17.5891 0.27397 345.633 91.7995 348.621
lowerback 2.37928 1.8678 2.05193
upperback -4.30292 2.49516 -4.92247
thorax -5.51069 1.08746 -6.49793
lowerneck -5.28666 5.89716 -4.86207
upperneck 1.85565 8.2169 -0.482516
head 1.27995 4.06203 0.863889
rclavicle 4.19436e-014 -3.65764e-014
rhumerus -6.11696 -23.479 -36.5308
rradius 126.775
rwrist -40.0262
rhand -13.5659 -4.28617
rfingers 7.12502
rthumb 12.5476 -33.8894
lclavicle 4.19436e-014 -3.65764e-014
lhumerus 4.79628 17.7693 48.2136
lradius 139.192
lwrist 73.1814
lhand -38.1463 3.54799
lfingers 7.12502
lthumb -11.1803 33.2301
rfemur 3.29843 1.30092 19.1709
rtibia 17.7661
rfoot -22.2332 -8.49738
rtoes -7.91628
lfemur 2.74354 0.0817874 -16.1696
ltibia 12.3684
lfoot -11.8184 -3.14858
ltoes -2.6731
2755
root 3.60767 17.594 0.276195 344.043 91.748 346.907
lowerback 2.39039 1.87895 1.94348
upperback -4.43372 2.50361 -5.02018
thorax -5.65516 1.09061 -6.54823
lowerneck -5.16611 5.93983 -4.87951
upperneck 2.00731 8.26808 -0.397713
head 1.30212 4.08617 0.893121
rclavicle -5.56597e-015 6.04305e-014
rhumerus -6.0761 -23.5844 -35.7866
rradius 126.706
rwrist -40.2195
rhand -13.9198 -4.31667
rfingers 7.12502
rthumb 12.2065 -33.9405
lclavicle -5.56597e-015 6.04305e-014
lhumerus 5.42057 18.9056 47.943
lradius 138.713
lwrist 73.811
lhand -37.9616 2.05487
lfingers 7.12502
lthumb -11.0022 31.7465
rfemur 3.13143 1.291 19.1251
rtibia 17.7873
rfoot -22.207 -8.52281
rtoes -8.01467
lfemur 2.6874 0.0672764 -16.2157
ltibia 12.2383
lfoot -11.7621 -3.02933
ltoes -2.7795
2756
root 3.60539 17.5979 0.277892 343.757 91.7039 346.516
lowerback 2.41687 1.88026 1.86173
upperback -4.56914 2.50013 -5.09443
thorax -5.81501 1.08642 -6.58925
lowerneck -4.97733 5.98416 -4.86609
upperneck 2.10789 8.31787 -0.39
head 1.3005 4.10997 0.889264
rclavicle -8.94531e-015 1.74931e-014
rhumerus -6.03196 -23.4784 -35.1766
rradius 126.428
rwrist -37.7002
rhand -14.2206 -3.75118
rfingers 7.12502
rthumb 11.9164 -33.392
lclavicle -8.94531e-015 1.74931e-014
lhumerus 5.88176 19.116 47.5505
lradius 137.816
lwrist 70.1251
lhand -37.5139 -0.681137
lfingers 7.12502
lthumb -10.5704 29.033
rfemur 3.02124 1.28934 19.1229
rtibia 17.7526
rfoot -22.1535 -8.53489
rtoes -7.87228
lfemur 2.60739 0.0583002 -16.2201
ltibia 12.1774
lfoot -11.7092 -2.95226
ltoes -2.95578
